<mxfile host="app.diagrams.net" modified="2023-06-27T06:17:29.650Z" agent="Mozilla/5.0 (Macintosh; Intel Mac OS X 10_15_7) AppleWebKit/537.36 (KHTML, like Gecko) Chrome/112.0.0.0 YaBrowser/23.5.1.762 Yowser/2.5 Safari/537.36" version="21.5.0" etag="2jvWPRGLSOO9Gb5KzpqH" type="github">
  <diagram name="Page-1" id="lohE0_ROMSyT3_82dJKe">
    <mxGraphModel>
      <root>
        <mxCell id="0" />
        <mxCell id="1" parent="0" />
      </root>
    </mxGraphModel>
  </diagram>
</mxfile>
